<?xml version="1.0" standalone="no"?>
<!DOCTYPE svg PUBLIC "-//W3C//DTD SVG 20010904//EN"
 "http://www.w3.org/TR/2001/REC-SVG-20010904/DTD/svg10.dtd">
<svg version="1.0" xmlns="http://www.w3.org/2000/svg"
 width="512.000000pt" height="512.000000pt" viewBox="0 0 512.000000 512.000000"
 preserveAspectRatio="xMidYMid meet">

<g transform="translate(0.000000,512.000000) scale(0.100000,-0.100000)"
fill="#000000" stroke="none">
<path d="M2464 5106 c-23 -7 -63 -28 -90 -46 -63 -42 -2230 -2204 -2295 -2290
-61 -80 -83 -149 -76 -237 9 -117 79 -217 186 -267 41 -19 67 -21 248 -24
l203 -3 2 -1002 3 -1002 27 -51 c40 -76 70 -107 140 -145 l63 -34 522 -3 522
-3 3 843 3 843 34 63 c38 70 69 100 145 140 l51 27 405 0 405 0 51 -27 c76
-40 107 -70 145 -140 l34 -63 3 -843 3 -843 522 3 522 3 52 27 c66 35 116 85
151 151 l27 52 3 1002 2 1002 203 3 c181 3 207 5 248 24 179 83 242 300 136
469 -17 28 -156 176 -309 330 l-277 280 -3 610 -3 610 -34 63 c-38 70 -69 100
-145 140 l-51 27 -245 0 -245 0 -63 -34 c-70 -38 -101 -70 -139 -145 -24 -45
-27 -65 -31 -179 l-4 -129 -362 360 c-198 197 -383 374 -410 392 -86 58 -190
75 -282 46z"/>
</g>
</svg>
