<svg width="896" height="1024" viewBox="0 0 896 1024" fill="none" xmlns="http://www.w3.org/2000/svg">
<g clip-path="url(#clip0_0_1)">
<path d="M622.196 947.439V874.595H670.765V996H549.34V947.439H622.196Z" fill="#0E5779"/>
<path d="M758.188 806.612V733.768H806.757V855.173H685.336V806.612H758.188Z" fill="#0E5779"/>
<path d="M733.905 923.156V996H685.336V874.595H806.757V923.156H733.905Z" fill="#0E5779"/>
<path d="M286.019 947.439V874.595H237.449V996H358.873V947.439H286.019Z" fill="#0E5779"/>
<path d="M150.024 806.612V733.768H101.455V855.173H222.879V806.612H150.024Z" fill="#0E5779"/>
<path d="M174.309 923.156V996H222.879V874.595H101.455V923.156H174.309Z" fill="#0E5779"/>
<path d="M856 56H49L107.507 683.339L454.517 985.914L797.492 683.339L856 56Z" fill="#0E5779"/>
<path d="M817 92.5H453V943L765.5 674.5L817 92.5Z" fill="#1A89BC"/>
<mask id="mask0_0_1" style="mask-type:alpha" maskUnits="userSpaceOnUse" x="125" y="119" width="663" height="791">
<path d="M416.185 798.318V685.356L484.78 687.373V881.021L452.5 909.262L315.31 784.197L303.205 673.253L353.642 687.373L361.712 749.906L416.185 798.318Z" fill="white"/>
<path d="M484.78 802.352V685.356L428.29 687.373V868.289L452.5 909.262L597.76 784.197L609.865 673.253L559.427 687.373L551.357 749.906L484.78 802.352Z" fill="white"/>
<path d="M178.12 661.15L125.665 120.549H230.575L295.135 766.043L178.12 661.15Z" fill="white"/>
<path d="M734.95 661.15L787.405 120.549H682.495L617.935 766.043L734.95 661.15Z" fill="white"/>
<path d="M722.845 402.953H178.12L180.191 483.639H716.631L722.845 402.953Z" fill="white"/>
<path d="M484.78 689.391V406.987L416.185 408.061V689.391H484.78Z" fill="white"/>
<path d="M400.045 325.253V196.155H343.555V325.253H400.045Z" fill="white"/>
<path d="M418.202 351.476L392.36 313.453L348.36 311.953L343.555 325.253L389.5 405H509.5L551.357 327.27H498.902L480.745 351.476H418.202Z" fill="white"/>
<path d="M418.202 169.931L396.36 201.453L343.555 203.953V196.155L391.975 119.502H508.99L547.322 194.137H498.902L478.727 169.931H418.202Z" fill="white"/>
</mask>
<g mask="url(#mask0_0_1)">
<path d="M89 92H453V942.5L140.5 674L89 92Z" fill="#E4E4E4"/>
<path d="M817.012 92H453.012V942.5L765.512 674L817.012 92Z" fill="white"/>
</g>
</g>
<defs>
<clipPath id="clip0_0_1">
<rect width="807" height="940" fill="white" transform="translate(49 56)"/>
</clipPath>
</defs>
</svg>
