<svg width="60" height="60" viewBox="0 0 60 60" fill="none" xmlns="http://www.w3.org/2000/svg">
<path d="M46.6667 40C48.5075 40 50 41.4925 50 43.3333C50 45.1742 48.5075 46.6667 46.6667 46.6667C45.665 46.6667 14.335 46.6667 13.3333 46.6667C11.4925 46.6667 10 45.1742 10 43.3333C10 41.4925 11.4925 40 13.3333 40C14.335 40 45.665 40 46.6667 40ZM46.6667 26.6667C48.5075 26.6667 50 28.1592 50 30C50 31.8408 48.5075 33.3333 46.6667 33.3333C45.665 33.3333 14.335 33.3333 13.3333 33.3333C11.4925 33.3333 10 31.8408 10 30C10 28.1592 11.4925 26.6667 13.3333 26.6667C14.335 26.6667 45.665 26.6667 46.6667 26.6667ZM46.6667 13.3333C48.5075 13.3333 50 14.8258 50 16.6667C50 18.5075 48.5075 20 46.6667 20C45.665 20 14.335 20 13.3333 20C11.4925 20 10 18.5075 10 16.6667C10 14.8258 11.4925 13.3333 13.3333 13.3333C14.335 13.3333 45.665 13.3333 46.6667 13.3333Z" fill="#315F7B"/>
</svg>
