<svg width="34" height="28" viewBox="0 0 34 28" fill="none" xmlns="http://www.w3.org/2000/svg">
<path d="M30.5556 22.2222C32.0896 22.2222 33.3334 23.466 33.3334 25C33.3334 26.5341 32.0896 27.7778 30.5556 27.7778C29.7209 27.7778 3.6125 27.7778 2.77778 27.7778C1.24375 27.7778 0 26.5341 0 25C0 23.466 1.24375 22.2222 2.77778 22.2222C3.6125 22.2222 29.7209 22.2222 30.5556 22.2222ZM30.5556 11.1111C32.0896 11.1111 33.3334 12.3549 33.3334 13.8889C33.3334 15.4229 32.0896 16.6667 30.5556 16.6667C29.7209 16.6667 3.6125 16.6667 2.77778 16.6667C1.24375 16.6667 0 15.4229 0 13.8889C0 12.3549 1.24375 11.1111 2.77778 11.1111C3.6125 11.1111 29.7209 11.1111 30.5556 11.1111ZM30.5556 0C32.0896 0 33.3334 1.24375 33.3334 2.77778C33.3334 4.31181 32.0896 5.55556 30.5556 5.55556C29.7209 5.55556 3.6125 5.55556 2.77778 5.55556C1.24375 5.55556 0 4.31181 0 2.77778C0 1.24375 1.24375 0 2.77778 0C3.6125 0 29.7209 0 30.5556 0Z" fill="#265775"/>
</svg>
